<?xml version="1.0" encoding="UTF-8" standalone="no"?>
<svg width="501px" height="410px" viewBox="0 0 501 410" version="1.1" xmlns="http://www.w3.org/2000/svg" xmlns:xlink="http://www.w3.org/1999/xlink" xmlns:sketch="http://www.bohemiancoding.com/sketch/ns">
    <!-- Generator: Sketch 3.3.3 (12081) - http://www.bohemiancoding.com/sketch -->
    <title>Rectangle 4 + Rectangle 5 + Rectangle 5 Copy</title>
    <desc>Created with Sketch.</desc>
    <defs></defs>
    <g id="Page-1" stroke="none" stroke-width="1" fill="none" fill-rule="evenodd" sketch:type="MSPage">
        <g id="Rectangle-4-+-Rectangle-5-+-Rectangle-5-Copy" sketch:type="MSLayerGroup" transform="translate(230.500000, 227.500000) rotate(36.000000) translate(-230.500000, -227.500000) translate(-50.000000, 137.000000)" fill="#D8D8D8">
            <path d="M99,75 C99,75 215.679688,102.148438 274.152344,102.148438 C336.679688,102.148438 462,75 462,75 L462,160 C462,160 338.550781,180.910156 274.152344,180.910156 C217.550781,180.910156 99,160 99,160 L99,75 Z" id="Rectangle-4" sketch:type="MSShapeGroup"></path>
            <path d="M2.03506571,61.8970726 C0.721905301,51.3487145 0.843800114,34.0500364 1.21568124,20.6833444 C1.51673077,9.86258452 12.6826063,5.66039963 12.6826063,5.66039963 C13.1728729,5.44668626 13.9637264,5.07364116 14.4737678,4.82759476 C14.4737678,4.82759476 22.2884208,0.623635138 31.9179687,0.623635138 L158.347656,0.623635138 C170.909233,0.623635138 186.072223,9.38693017 186.072223,9.38693017 C186.554417,9.65432625 187.2257,10.2129517 187.576471,10.6538578 C187.576471,10.6538578 197.035066,21.8137469 197.035066,31.9101562 L197.035066,146.63287 C197.035066,147.180055 196.608378,147.762858 196.083623,147.930385 C196.083623,147.930385 156.236504,161.244074 110.820311,161.148431 C100.151634,161.125963 74.7671721,154.862028 66.6835927,151.757806 C55.9179677,147.623635 34.4627704,142.803728 17.7226571,119.535157 C0.982543939,96.266586 5.05483857,86.1543115 2.03506571,61.8970726 Z" id="Rectangle-5" sketch:type="MSShapeGroup"></path>
            <path d="M365.035066,61.8970726 C363.721905,51.3487145 363.8438,34.0500364 364.215681,20.6833444 C364.516731,9.86258452 375.682606,5.66039963 375.682606,5.66039963 C376.172873,5.44668626 376.963726,5.07364116 377.473768,4.82759476 C377.473768,4.82759476 385.288421,0.623635138 394.917969,0.623635138 L521.347656,0.623635138 C533.909233,0.623635138 549.072223,9.38693017 549.072223,9.38693017 C549.554417,9.65432625 550.2257,10.2129517 550.576471,10.6538578 C550.576471,10.6538578 560.035066,21.8137469 560.035066,31.9101562 L560.035066,146.63287 C560.035066,147.180055 559.608378,147.762858 559.083623,147.930385 C559.083623,147.930385 519.236504,161.244074 473.820311,161.148431 C463.151634,161.125963 437.767172,154.862028 429.683593,151.757806 C418.917968,147.623635 397.46277,142.803728 380.722657,119.535157 C363.982544,96.266586 368.054839,86.1543115 365.035066,61.8970726 Z" id="Rectangle-5-Copy" sketch:type="MSShapeGroup" transform="translate(462.000000, 80.886289) scale(-1, 1) translate(-462.000000, -80.886289) "></path>
        </g>
    </g>
</svg>